<svg 
  version="1.1" 
  viewBox="0 0 373.655 373.655" 
  xmlns="http://www.w3.org/2000/svg" 
>
  <g>
    <path 
      d="M184.435,78.748l-34.999,54.547c-0.605,0.942-0.6,2.151,0.012,3.088c0.53,0.812,1.429,1.288,2.379,1.288 c0.147,0,0.295-0.011,0.444-0.035l22.868-3.611v10.509c0,17.263,9.198,26.413,15.913,33.093c6.094,6.062,9.023,9.296,9.023,16.52 c0,7.223-2.929,10.458-9.023,16.52c-6.715,6.681-15.913,15.831-15.913,33.093c0,17.262,9.198,26.412,15.913,33.092 c6.094,6.062,9.023,9.296,9.023,16.518h23.378c0-17.262-9.198-26.412-15.913-33.092c-6.094-6.062-9.022-9.296-9.022-16.519 c0-7.224,2.929-10.458,9.022-16.52c6.716-6.681,15.913-15.831,15.913-33.093c0-17.263-9.197-26.412-15.913-33.093 c-6.094-6.062-9.022-9.297-9.022-16.52v-10.509l22.868,3.611c1.108,0.175,2.211-0.316,2.823-1.253 c0.612-0.937,0.617-2.146,0.012-3.088l-35.001-54.547c-0.522-0.814-1.424-1.307-2.392-1.307S184.958,77.934,184.435,78.748z" 
      fill="#00c2e0" 
    >
    </path>
    <path 
      d="M369.261,176.221L197.434,4.394c-5.857-5.858-15.355-5.858-21.213,0L4.394,176.221c-5.858,5.858-5.858,15.355,0,21.213 l171.827,171.827c2.929,2.929,6.768,4.394,10.606,4.394s7.678-1.464,10.606-4.394l171.827-171.827 C375.119,191.576,375.119,182.079,369.261,176.221z M186.827,337.441L36.213,186.827L186.827,36.214l150.614,150.614 L186.827,337.441z" 
      fill="#00c2e0" 
    >
    </path>
  </g>
</svg>